<?xml version="1.0" encoding="UTF-8" standalone="no"?>
<!DOCTYPE svg PUBLIC "-//W3C//DTD SVG 1.1//EN"
 "http://www.w3.org/Graphics/SVG/1.1/DTD/svg11.dtd">
<!-- Generated by graphviz version 2.40.1 (20161225.0304)
 -->
<!-- Title: main Pages: 1 -->
<svg width="895pt" height="700pt"
 viewBox="0.00 0.00 894.50 700.00" xmlns="http://www.w3.org/2000/svg" xmlns:xlink="http://www.w3.org/1999/xlink">
<g id="graph0" class="graph" transform="scale(1 1) rotate(0) translate(4 696)">
<title>main</title>
<polygon fill="#ffffff" stroke="transparent" points="-4,4 -4,-696 890.5,-696 890.5,4 -4,4"/>
<!-- SWITCH -->
<g id="node1" class="node">
<title>SWITCH</title>
<polygon fill="none" stroke="#000000" points="502.6975,-679.5623 467.5,-692 432.3025,-679.5623 445.7468,-659.4377 489.2532,-659.4377 502.6975,-679.5623"/>
<text text-anchor="middle" x="467.5" y="-670.3" font-family="Times,serif" font-size="14.00" fill="#000000">State</text>
</g>
<!-- MOVE -->
<g id="node2" class="node">
<title>MOVE</title>
<polygon fill="none" stroke="#000000" points="207,-586 122,-586 122,-548 207,-548 207,-586"/>
<text text-anchor="middle" x="164.5" y="-570.8" font-family="Times,serif" font-size="14.00" fill="#000000">Send goal to</text>
<text text-anchor="middle" x="164.5" y="-555.8" font-family="Times,serif" font-size="14.00" fill="#000000"> navigation</text>
</g>
<!-- SWITCH&#45;&gt;MOVE -->
<g id="edge1" class="edge">
<title>SWITCH&#45;&gt;MOVE</title>
<path fill="none" stroke="#000000" d="M441.9275,-664.9695C392.3942,-647.4775 282.4765,-608.6617 216.8406,-585.4833"/>
<polygon fill="#000000" stroke="#000000" points="217.6914,-582.072 207.0966,-582.0424 215.3605,-588.6725 217.6914,-582.072"/>
<text text-anchor="middle" x="377" y="-626.8" font-family="Times,serif" font-size="14.00" fill="#000000">move</text>
</g>
<!-- RECOVER -->
<g id="node4" class="node">
<title>RECOVER</title>
<polygon fill="none" stroke="#000000" points="629,-586 510,-586 510,-548 629,-548 629,-586"/>
<text text-anchor="middle" x="569.5" y="-570.8" font-family="Times,serif" font-size="14.00" fill="#000000">Start/continue</text>
<text text-anchor="middle" x="569.5" y="-555.8" font-family="Times,serif" font-size="14.00" fill="#000000"> recovery behavior</text>
</g>
<!-- SWITCH&#45;&gt;RECOVER -->
<g id="edge24" class="edge">
<title>SWITCH&#45;&gt;RECOVER</title>
<path fill="none" stroke="#000000" d="M481.6827,-659.1221C497.8686,-642.1428 524.6484,-614.0502 544.3875,-593.3435"/>
<polygon fill="#000000" stroke="#000000" points="546.942,-595.7364 551.3086,-586.0832 541.8752,-590.9064 546.942,-595.7364"/>
<text text-anchor="middle" x="539.5" y="-626.8" font-family="Times,serif" font-size="14.00" fill="#000000">recovery</text>
</g>
<!-- if_WAITING -->
<g id="node5" class="node">
<title>if_WAITING</title>
<polygon fill="none" stroke="#000000" points="412.5,-605 333.5,-567 412.5,-529 491.5,-567 412.5,-605"/>
<text text-anchor="middle" x="412.5" y="-570.8" font-family="Times,serif" font-size="14.00" fill="#000000">Is the robot</text>
<text text-anchor="middle" x="412.5" y="-555.8" font-family="Times,serif" font-size="14.00" fill="#000000"> moving ?</text>
</g>
<!-- SWITCH&#45;&gt;if_WAITING -->
<g id="edge11" class="edge">
<title>SWITCH&#45;&gt;if_WAITING</title>
<path fill="none" stroke="#000000" d="M459.8525,-659.1221C452.8833,-645.564 442.2719,-624.9198 432.8594,-606.6084"/>
<polygon fill="#000000" stroke="#000000" points="435.8993,-604.8662 428.2148,-597.5724 429.6736,-608.0663 435.8993,-604.8662"/>
<text text-anchor="middle" x="469" y="-626.8" font-family="Times,serif" font-size="14.00" fill="#000000">waiting</text>
</g>
<!-- EXPLORATION -->
<g id="node16" class="node">
<title>EXPLORATION</title>
<polygon fill="none" stroke="#000000" points="796.5,-586 650.5,-586 650.5,-548 796.5,-548 796.5,-586"/>
<text text-anchor="middle" x="723.5" y="-570.8" font-family="Times,serif" font-size="14.00" fill="#000000">Find next target</text>
<text text-anchor="middle" x="723.5" y="-555.8" font-family="Times,serif" font-size="14.00" fill="#000000">(Exploration algorithm)</text>
</g>
<!-- SWITCH&#45;&gt;EXPLORATION -->
<g id="edge4" class="edge">
<title>SWITCH&#45;&gt;EXPLORATION</title>
<path fill="none" stroke="#000000" d="M493.6196,-665.2508C513.9267,-658.2917 542.7168,-648.0812 567.5,-638 603.8448,-623.2158 644.1362,-604.8251 674.6663,-590.4654"/>
<polygon fill="#000000" stroke="#000000" points="676.2643,-593.5814 683.8125,-586.1468 673.2755,-587.2516 676.2643,-593.5814"/>
<text text-anchor="middle" x="621.5" y="-626.8" font-family="Times,serif" font-size="14.00" fill="#000000">default</text>
</g>
<!-- SET_STATE_WAITING -->
<g id="node3" class="node">
<title>SET_STATE_WAITING</title>
<polygon fill="none" stroke="#000000" points="87,-354 0,-354 0,-301 87,-301 87,-354"/>
<text text-anchor="middle" x="43.5" y="-338.8" font-family="Times,serif" font-size="14.00" fill="#000000">Set the</text>
<text text-anchor="middle" x="43.5" y="-323.8" font-family="Times,serif" font-size="14.00" fill="#000000"> current state</text>
<text text-anchor="middle" x="43.5" y="-308.8" font-family="Times,serif" font-size="14.00" fill="#000000"> to waiting</text>
</g>
<!-- MOVE&#45;&gt;SET_STATE_WAITING -->
<g id="edge2" class="edge">
<title>MOVE&#45;&gt;SET_STATE_WAITING</title>
<path fill="none" stroke="#000000" d="M137.125,-547.9599C116.0781,-531.8098 88.0516,-506.7284 72.5,-478 53.2663,-442.4697 46.6464,-396.1434 44.4436,-364.3264"/>
<polygon fill="#000000" stroke="#000000" points="47.9254,-363.9103 43.854,-354.129 40.9371,-364.3144 47.9254,-363.9103"/>
</g>
<!-- CONTINUE -->
<g id="node11" class="node">
<title>CONTINUE</title>
<ellipse fill="none" stroke="#000000" cx="350.5" cy="-18" rx="42.7926" ry="18"/>
<text text-anchor="middle" x="350.5" y="-14.3" font-family="Times,serif" font-size="14.00" fill="#000000">Continue</text>
</g>
<!-- SET_STATE_WAITING&#45;&gt;CONTINUE -->
<g id="edge3" class="edge">
<title>SET_STATE_WAITING&#45;&gt;CONTINUE</title>
<path fill="none" stroke="#000000" d="M38.6842,-300.7355C30.497,-245.8054 20.7567,-119.97 88.5,-54 103.2352,-39.6505 225.7047,-27.7514 297.8717,-21.9026"/>
<polygon fill="#000000" stroke="#000000" points="298.4454,-25.368 308.1355,-21.084 297.8888,-18.3902 298.4454,-25.368"/>
</g>
<!-- SET_STATE_MOVE -->
<g id="node14" class="node">
<title>SET_STATE_MOVE</title>
<polygon fill="none" stroke="#000000" points="669,-256.5 582,-256.5 582,-203.5 669,-203.5 669,-256.5"/>
<text text-anchor="middle" x="625.5" y="-241.3" font-family="Times,serif" font-size="14.00" fill="#000000">Set the</text>
<text text-anchor="middle" x="625.5" y="-226.3" font-family="Times,serif" font-size="14.00" fill="#000000"> current state</text>
<text text-anchor="middle" x="625.5" y="-211.3" font-family="Times,serif" font-size="14.00" fill="#000000"> to move</text>
</g>
<!-- RECOVER&#45;&gt;SET_STATE_MOVE -->
<g id="edge25" class="edge">
<title>RECOVER&#45;&gt;SET_STATE_MOVE</title>
<path fill="none" stroke="#000000" d="M570.3666,-547.765C572.1727,-512.6262 577.1536,-435.7965 588.5,-372 594.9562,-335.6992 605.938,-295.0587 614.265,-266.5872"/>
<polygon fill="#000000" stroke="#000000" points="617.7156,-267.2611 617.1994,-256.6789 611.0037,-265.2733 617.7156,-267.2611"/>
</g>
<!-- if_GOAL_IN_UO -->
<g id="node7" class="node">
<title>if_GOAL_IN_UO</title>
<polygon fill="none" stroke="#000000" points="196.5,-478 81.5,-425 196.5,-372 311.5,-425 196.5,-478"/>
<text text-anchor="middle" x="196.5" y="-436.3" font-family="Times,serif" font-size="14.00" fill="#000000">Is the goal moved</text>
<text text-anchor="middle" x="196.5" y="-421.3" font-family="Times,serif" font-size="14.00" fill="#000000"> to unknown or</text>
<text text-anchor="middle" x="196.5" y="-406.3" font-family="Times,serif" font-size="14.00" fill="#000000"> occupied space?</text>
</g>
<!-- if_WAITING&#45;&gt;if_GOAL_IN_UO -->
<g id="edge12" class="edge">
<title>if_WAITING&#45;&gt;if_GOAL_IN_UO</title>
<path fill="none" stroke="#000000" d="M378.75,-544.8125C345.0349,-522.6479 292.6085,-488.1825 252.6241,-461.8964"/>
<polygon fill="#000000" stroke="#000000" points="254.3145,-458.8191 244.0358,-456.2504 250.4691,-464.6683 254.3145,-458.8191"/>
<text text-anchor="middle" x="334" y="-499.8" font-family="Times,serif" font-size="14.00" fill="#000000">yes</text>
</g>
<!-- if_WAITING_GOAL -->
<g id="node9" class="node">
<title>if_WAITING_GOAL</title>
<polygon fill="none" stroke="#000000" points="419.5,-478 329.5,-425 419.5,-372 509.5,-425 419.5,-478"/>
<text text-anchor="middle" x="419.5" y="-436.3" font-family="Times,serif" font-size="14.00" fill="#000000">Has the robot</text>
<text text-anchor="middle" x="419.5" y="-421.3" font-family="Times,serif" font-size="14.00" fill="#000000"> reached the</text>
<text text-anchor="middle" x="419.5" y="-406.3" font-family="Times,serif" font-size="14.00" fill="#000000"> goal?</text>
</g>
<!-- if_WAITING&#45;&gt;if_WAITING_GOAL -->
<g id="edge13" class="edge">
<title>if_WAITING&#45;&gt;if_WAITING_GOAL</title>
<path fill="none" stroke="#000000" d="M414.3392,-529.6912C414.9875,-516.5385 415.7349,-501.3777 416.456,-486.7498"/>
<polygon fill="#000000" stroke="#000000" points="419.9528,-486.8994 416.9495,-476.7392 412.9613,-486.5547 419.9528,-486.8994"/>
<text text-anchor="middle" x="423.5" y="-499.8" font-family="Times,serif" font-size="14.00" fill="#000000">no</text>
</g>
<!-- RESET_RECOVER -->
<g id="node6" class="node">
<title>RESET_RECOVER</title>
<polygon fill="none" stroke="#000000" points="695.5,-444 597.5,-444 597.5,-406 695.5,-406 695.5,-444"/>
<text text-anchor="middle" x="646.5" y="-428.8" font-family="Times,serif" font-size="14.00" fill="#000000">Reset recovery</text>
<text text-anchor="middle" x="646.5" y="-413.8" font-family="Times,serif" font-size="14.00" fill="#000000"> behavior</text>
</g>
<!-- RESET_RECOVER&#45;&gt;SET_STATE_MOVE -->
<g id="edge6" class="edge">
<title>RESET_RECOVER&#45;&gt;SET_STATE_MOVE</title>
<path fill="none" stroke="#000000" d="M644.4482,-405.9475C640.9755,-373.7009 633.8834,-307.846 629.4291,-266.4849"/>
<polygon fill="#000000" stroke="#000000" points="632.908,-266.1002 628.3573,-256.5325 625.9483,-266.8498 632.908,-266.1002"/>
</g>
<!-- if_RECOVERING -->
<g id="node8" class="node">
<title>if_RECOVERING</title>
<polygon fill="none" stroke="#000000" points="209.5,-283 130.5,-230 209.5,-177 288.5,-230 209.5,-283"/>
<text text-anchor="middle" x="209.5" y="-241.3" font-family="Times,serif" font-size="14.00" fill="#000000">Is it a</text>
<text text-anchor="middle" x="209.5" y="-226.3" font-family="Times,serif" font-size="14.00" fill="#000000"> recovering</text>
<text text-anchor="middle" x="209.5" y="-211.3" font-family="Times,serif" font-size="14.00" fill="#000000"> movement</text>
</g>
<!-- if_GOAL_IN_UO&#45;&gt;if_RECOVERING -->
<g id="edge19" class="edge">
<title>if_GOAL_IN_UO&#45;&gt;if_RECOVERING</title>
<path fill="none" stroke="#000000" d="M199.9326,-373.511C201.6194,-348.2089 203.6638,-317.5429 205.429,-291.0645"/>
<polygon fill="#000000" stroke="#000000" points="208.9427,-290.9743 206.1158,-280.7636 201.9582,-290.5086 208.9427,-290.9743"/>
<text text-anchor="middle" x="215" y="-323.8" font-family="Times,serif" font-size="14.00" fill="#000000">yes</text>
</g>
<!-- if_GOAL_IN_UO&#45;&gt;CONTINUE -->
<g id="edge18" class="edge">
<title>if_GOAL_IN_UO&#45;&gt;CONTINUE</title>
<path fill="none" stroke="#000000" d="M167.1246,-385.42C133.7995,-335.3072 88.1528,-247.0615 121.5,-177 157.8025,-100.7296 251.0357,-54.555 306.7061,-32.8887"/>
<polygon fill="#000000" stroke="#000000" points="308.1964,-36.0668 316.3069,-29.2499 305.7156,-29.5212 308.1964,-36.0668"/>
<text text-anchor="middle" x="148.5" y="-147.8" font-family="Times,serif" font-size="14.00" fill="#000000">no</text>
</g>
<!-- SET_STATE_DEFAULT -->
<g id="node12" class="node">
<title>SET_STATE_DEFAULT</title>
<polygon fill="none" stroke="#000000" points="451,-126 364,-126 364,-73 451,-73 451,-126"/>
<text text-anchor="middle" x="407.5" y="-110.8" font-family="Times,serif" font-size="14.00" fill="#000000">Set the</text>
<text text-anchor="middle" x="407.5" y="-95.8" font-family="Times,serif" font-size="14.00" fill="#000000"> current state</text>
<text text-anchor="middle" x="407.5" y="-80.8" font-family="Times,serif" font-size="14.00" fill="#000000"> to default</text>
</g>
<!-- if_RECOVERING&#45;&gt;SET_STATE_DEFAULT -->
<g id="edge21" class="edge">
<title>if_RECOVERING&#45;&gt;SET_STATE_DEFAULT</title>
<path fill="none" stroke="#000000" d="M244.6402,-200.4316C266.1413,-183.0052 294.6028,-161.0952 321.5,-144 325.0284,-141.7574 338.8002,-134.5385 354.3219,-126.5491"/>
<polygon fill="#000000" stroke="#000000" points="356.3002,-129.4679 363.5988,-121.7879 353.104,-123.2402 356.3002,-129.4679"/>
<text text-anchor="middle" x="328.5" y="-147.8" font-family="Times,serif" font-size="14.00" fill="#000000">no</text>
</g>
<!-- SET_STATE_RECOVER -->
<g id="node13" class="node">
<title>SET_STATE_RECOVER</title>
<polygon fill="none" stroke="#000000" points="346,-126 259,-126 259,-73 346,-73 346,-126"/>
<text text-anchor="middle" x="302.5" y="-110.8" font-family="Times,serif" font-size="14.00" fill="#000000">Set the</text>
<text text-anchor="middle" x="302.5" y="-95.8" font-family="Times,serif" font-size="14.00" fill="#000000"> current state</text>
<text text-anchor="middle" x="302.5" y="-80.8" font-family="Times,serif" font-size="14.00" fill="#000000"> to recover</text>
</g>
<!-- if_RECOVERING&#45;&gt;SET_STATE_RECOVER -->
<g id="edge20" class="edge">
<title>if_RECOVERING&#45;&gt;SET_STATE_RECOVER</title>
<path fill="none" stroke="#000000" d="M215.38,-180.7562C218.6369,-167.9217 223.6843,-154.704 231.5,-144 236.6177,-136.9911 243.2058,-130.8323 250.301,-125.508"/>
<polygon fill="#000000" stroke="#000000" points="252.5624,-128.2 258.8056,-119.6401 248.587,-122.4384 252.5624,-128.2"/>
<text text-anchor="middle" x="241" y="-147.8" font-family="Times,serif" font-size="14.00" fill="#000000">yes</text>
</g>
<!-- if_WAITING_START -->
<g id="node10" class="node">
<title>if_WAITING_START</title>
<polygon fill="none" stroke="#000000" points="407.5,-283 306.5,-230 407.5,-177 508.5,-230 407.5,-283"/>
<text text-anchor="middle" x="407.5" y="-241.3" font-family="Times,serif" font-size="14.00" fill="#000000">Has the robot</text>
<text text-anchor="middle" x="407.5" y="-226.3" font-family="Times,serif" font-size="14.00" fill="#000000"> move far</text>
<text text-anchor="middle" x="407.5" y="-211.3" font-family="Times,serif" font-size="14.00" fill="#000000"> from the start?</text>
</g>
<!-- if_WAITING_GOAL&#45;&gt;if_WAITING_START -->
<g id="edge15" class="edge">
<title>if_WAITING_GOAL&#45;&gt;if_WAITING_START</title>
<path fill="none" stroke="#000000" d="M416.3471,-373.766C414.8023,-348.6622 412.9296,-318.2313 411.3057,-291.8422"/>
<polygon fill="#000000" stroke="#000000" points="414.7812,-291.3349 410.6735,-281.5688 407.7944,-291.7649 414.7812,-291.3349"/>
<text text-anchor="middle" x="422.5" y="-323.8" font-family="Times,serif" font-size="14.00" fill="#000000">no</text>
</g>
<!-- if_WAITING_GOAL&#45;&gt;SET_STATE_DEFAULT -->
<g id="edge14" class="edge">
<title>if_WAITING_GOAL&#45;&gt;SET_STATE_DEFAULT</title>
<path fill="none" stroke="#000000" d="M451.4684,-390.744C492.8931,-341.9868 555.5511,-250.3553 517.5,-177 505.2095,-153.3062 481.9779,-135.3243 460.0198,-122.6755"/>
<polygon fill="#000000" stroke="#000000" points="461.4986,-119.4946 451.0483,-117.7501 458.1298,-125.6307 461.4986,-119.4946"/>
<text text-anchor="middle" x="539" y="-226.3" font-family="Times,serif" font-size="14.00" fill="#000000">yes</text>
</g>
<!-- if_WAITING_START&#45;&gt;SET_STATE_DEFAULT -->
<g id="edge16" class="edge">
<title>if_WAITING_START&#45;&gt;SET_STATE_DEFAULT</title>
<path fill="none" stroke="#000000" d="M407.5,-176.9207C407.5,-163.2485 407.5,-148.8373 407.5,-136.2042"/>
<polygon fill="#000000" stroke="#000000" points="411.0001,-136.0659 407.5,-126.0659 404.0001,-136.066 411.0001,-136.0659"/>
<text text-anchor="middle" x="417" y="-147.8" font-family="Times,serif" font-size="14.00" fill="#000000">yes</text>
</g>
<!-- if_WAITING_START&#45;&gt;SET_STATE_RECOVER -->
<g id="edge17" class="edge">
<title>if_WAITING_START&#45;&gt;SET_STATE_RECOVER</title>
<path fill="none" stroke="#000000" d="M377.4112,-192.6039C362.5916,-174.1853 344.839,-152.1214 330.3361,-134.0962"/>
<polygon fill="#000000" stroke="#000000" points="332.9191,-131.7233 323.9234,-126.1262 327.4653,-136.1115 332.9191,-131.7233"/>
<text text-anchor="middle" x="356.5" y="-147.8" font-family="Times,serif" font-size="14.00" fill="#000000">no</text>
</g>
<!-- SET_STATE_DEFAULT&#45;&gt;CONTINUE -->
<g id="edge22" class="edge">
<title>SET_STATE_DEFAULT&#45;&gt;CONTINUE</title>
<path fill="none" stroke="#000000" d="M388.8361,-72.8139C382.3404,-63.5262 375.0678,-53.1277 368.6172,-43.9045"/>
<polygon fill="#000000" stroke="#000000" points="371.3361,-41.685 362.7367,-35.4963 365.5998,-45.697 371.3361,-41.685"/>
</g>
<!-- SET_STATE_RECOVER&#45;&gt;CONTINUE -->
<g id="edge23" class="edge">
<title>SET_STATE_RECOVER&#45;&gt;CONTINUE</title>
<path fill="none" stroke="#000000" d="M318.217,-72.8139C323.6306,-63.622 329.6851,-53.342 335.0752,-44.1901"/>
<polygon fill="#000000" stroke="#000000" points="338.1364,-45.8891 340.1954,-35.4963 332.1047,-42.3367 338.1364,-45.8891"/>
</g>
<!-- SET_STATE_MOVE&#45;&gt;CONTINUE -->
<g id="edge10" class="edge">
<title>SET_STATE_MOVE&#45;&gt;CONTINUE</title>
<path fill="none" stroke="#000000" d="M601.9095,-203.3416C571.3962,-169.945 515.4902,-112.3351 459.5,-73 438.1426,-57.9956 412.1115,-44.7002 390.8447,-34.9413"/>
<polygon fill="#000000" stroke="#000000" points="391.9983,-31.6225 381.4426,-30.713 389.1272,-38.0066 391.9983,-31.6225"/>
</g>
<!-- EXIT -->
<g id="node15" class="node">
<title>EXIT</title>
<ellipse fill="none" stroke="#000000" cx="810.5" cy="-425" rx="27" ry="18"/>
<text text-anchor="middle" x="810.5" y="-421.3" font-family="Times,serif" font-size="14.00" fill="#000000">Exit</text>
</g>
<!-- EXPLORATION&#45;&gt;RESET_RECOVER -->
<g id="edge5" class="edge">
<title>EXPLORATION&#45;&gt;RESET_RECOVER</title>
<path fill="none" stroke="#000000" d="M713.1154,-547.8492C699.912,-523.5001 677.0083,-481.2621 661.8025,-453.2202"/>
<polygon fill="#000000" stroke="#000000" points="664.8096,-451.4232 656.966,-444.3008 658.6561,-454.76 664.8096,-451.4232"/>
</g>
<!-- EXPLORATION&#45;&gt;CONTINUE -->
<g id="edge9" class="edge">
<title>EXPLORATION&#45;&gt;CONTINUE</title>
<path fill="none" stroke="#000000" d="M723.5,-547.7069C723.5,-520.3918 723.5,-468.8819 723.5,-425 723.5,-425 723.5,-425 723.5,-99.5 723.5,-67.2144 507.4566,-36.8658 404.2117,-24.2059"/>
<polygon fill="none" stroke="#000000" points="404.115,-24.1943 397.6774,-27.4435 392.2021,-22.7508 398.6397,-19.5016 404.115,-24.1943"/>
<text text-anchor="middle" x="747" y="-226.3" font-family="Times,serif" font-size="14.00" fill="#000000">No Goal</text>
</g>
<!-- EXPLORATION&#45;&gt;EXIT -->
<g id="edge7" class="edge">
<title>EXPLORATION&#45;&gt;EXIT</title>
<path fill="none" stroke="#000000" d="M731.481,-547.7915C737.8308,-533.1999 747.3155,-512.8401 757.5,-496 767.0472,-480.2137 779.2819,-463.635 789.5904,-450.4714"/>
<polygon fill="none" stroke="#000000" points="789.8773,-450.1114 790.4888,-442.9262 797.3564,-440.7271 796.745,-447.9123 789.8773,-450.1114"/>
<text text-anchor="middle" x="789.5" y="-499.8" font-family="Times,serif" font-size="14.00" fill="#000000">No Frontier</text>
</g>
<!-- EXPLORATION&#45;&gt;EXIT -->
<g id="edge8" class="edge">
<title>EXPLORATION&#45;&gt;EXIT</title>
<path fill="none" stroke="#000000" d="M779.1694,-547.9196C795.7477,-539.3376 812.0086,-527.3554 821.5,-511 831.5058,-493.7582 828.2149,-471.3394 822.7071,-453.7146"/>
<polygon fill="none" stroke="#000000" points="822.7038,-453.705 816.922,-449.3957 818.676,-442.4012 824.4579,-446.7105 822.7038,-453.705"/>
<text text-anchor="middle" x="856.5" y="-499.8" font-family="Times,serif" font-size="14.00" fill="#000000">No Cluster</text>
</g>
</g>
</svg>
