<?xml version="1.0" encoding="UTF-8" standalone="no"?>
<!DOCTYPE svg PUBLIC "-//W3C//DTD SVG 1.1//EN"
 "http://www.w3.org/Graphics/SVG/1.1/DTD/svg11.dtd">
<!-- Generated by graphviz version 2.40.1 (20161225.0304)
 -->
<!-- Title: exploration Pages: 1 -->
<svg width="695pt" height="946pt"
 viewBox="0.00 0.00 695.00 946.00" xmlns="http://www.w3.org/2000/svg" xmlns:xlink="http://www.w3.org/1999/xlink">
<g id="graph0" class="graph" transform="scale(1 1) rotate(0) translate(4 942)">
<title>exploration</title>
<polygon fill="#ffffff" stroke="transparent" points="-4,4 -4,-942 691,-942 691,4 -4,4"/>
<!-- FF -->
<g id="node1" class="node">
<title>FF</title>
<polygon fill="none" stroke="#000000" points="135.5,-938 18.5,-938 18.5,-902 135.5,-902 135.5,-938"/>
<text text-anchor="middle" x="77" y="-916.3" font-family="Times,serif" font-size="14.00" fill="#000000">Find Frontier cells</text>
</g>
<!-- if_FF -->
<g id="node2" class="node">
<title>if_FF</title>
<polygon fill="none" stroke="#000000" points="280,-938 170.7404,-920 280,-902 389.2596,-920 280,-938"/>
<text text-anchor="middle" x="280" y="-916.3" font-family="Times,serif" font-size="14.00" fill="#000000">If no Frontier cells</text>
</g>
<!-- FF&#45;&gt;if_FF -->
<g id="edge13" class="edge">
<title>FF&#45;&gt;if_FF</title>
<path fill="none" stroke="#000000" d="M135.6797,-920C143.9627,-920 152.2458,-920 160.5288,-920"/>
<polygon fill="#000000" stroke="#000000" points="160.6323,-923.5001 170.6323,-920 160.6322,-916.5001 160.6323,-923.5001"/>
</g>
<!-- CF -->
<g id="node4" class="node">
<title>CF</title>
<polygon fill="none" stroke="#000000" points="151.5,-851 2.5,-851 2.5,-815 151.5,-815 151.5,-851"/>
<text text-anchor="middle" x="77" y="-829.3" font-family="Times,serif" font-size="14.00" fill="#000000">Clustering Frontier cells</text>
</g>
<!-- FF&#45;&gt;CF -->
<!-- T_NF -->
<g id="node3" class="node">
<title>T_NF</title>
<polygon fill="none" stroke="#000000" points="598.1128,-920 555.0564,-938 468.9436,-938 425.8872,-920 468.9436,-902 555.0564,-902 598.1128,-920"/>
<text text-anchor="middle" x="512" y="-916.3" font-family="Times,serif" font-size="14.00" fill="#000000">Error no Frontiers</text>
</g>
<!-- if_FF&#45;&gt;T_NF -->
<g id="edge16" class="edge">
<title>if_FF&#45;&gt;T_NF</title>
<path fill="none" stroke="#000000" d="M389.5459,-920C398.2315,-920 406.9655,-920 415.5523,-920"/>
<polygon fill="#000000" stroke="#000000" points="415.5532,-923.5001 425.5531,-920 415.5531,-916.5001 415.5532,-923.5001"/>
<text text-anchor="middle" x="407.5368" y="-926.8" font-family="Times,serif" font-size="14.00" fill="#000000">yes</text>
</g>
<!-- if_FF&#45;&gt;CF -->
<g id="edge15" class="edge">
<title>if_FF&#45;&gt;CF</title>
<path fill="none" stroke="#000000" d="M249.6088,-906.9752C217.6939,-893.2974 166.9293,-871.5411 128.6977,-855.1561"/>
<polygon fill="#000000" stroke="#000000" points="129.8371,-851.8366 119.2669,-851.1144 127.0796,-858.2706 129.8371,-851.8366"/>
<text text-anchor="middle" x="198" y="-872.8" font-family="Times,serif" font-size="14.00" fill="#000000">no</text>
</g>
<!-- if_CF -->
<g id="node5" class="node">
<title>if_CF</title>
<polygon fill="none" stroke="#000000" points="268,-851 187.2282,-833 268,-815 348.7718,-833 268,-851"/>
<text text-anchor="middle" x="268" y="-829.3" font-family="Times,serif" font-size="14.00" fill="#000000">If no clusters</text>
</g>
<!-- CF&#45;&gt;if_CF -->
<g id="edge17" class="edge">
<title>CF&#45;&gt;if_CF</title>
<path fill="none" stroke="#000000" d="M151.6094,-833C160.0133,-833 168.4172,-833 176.8212,-833"/>
<polygon fill="#000000" stroke="#000000" points="177.0722,-836.5001 187.0721,-833 177.0721,-829.5001 177.0722,-836.5001"/>
</g>
<!-- T_NC -->
<g id="node6" class="node">
<title>T_NC</title>
<polygon fill="none" stroke="#000000" points="550.6076,-833 509.3038,-851 426.6962,-851 385.3924,-833 426.6962,-815 509.3038,-815 550.6076,-833"/>
<text text-anchor="middle" x="468" y="-829.3" font-family="Times,serif" font-size="14.00" fill="#000000">Error no Clusters</text>
</g>
<!-- if_CF&#45;&gt;T_NC -->
<g id="edge19" class="edge">
<title>if_CF&#45;&gt;T_NC</title>
<path fill="none" stroke="#000000" d="M349.0593,-833C357.6202,-833 366.3734,-833 375.0553,-833"/>
<polygon fill="#000000" stroke="#000000" points="375.1985,-836.5001 385.1985,-833 375.1984,-829.5001 375.1985,-836.5001"/>
<text text-anchor="middle" x="367.166" y="-839.8" font-family="Times,serif" font-size="14.00" fill="#000000">yes</text>
</g>
<!-- if_GW -->
<g id="node7" class="node">
<title>if_GW</title>
<polygon fill="none" stroke="#000000" points="268,-764 130,-726 268,-688 406,-726 268,-764"/>
<text text-anchor="middle" x="268" y="-729.8" font-family="Times,serif" font-size="14.00" fill="#000000">If wait a goal</text>
<text text-anchor="middle" x="268" y="-714.8" font-family="Times,serif" font-size="14.00" fill="#000000"> and goal list is empty</text>
</g>
<!-- if_CF&#45;&gt;if_GW -->
<g id="edge18" class="edge">
<title>if_CF&#45;&gt;if_GW</title>
<path fill="none" stroke="#000000" d="M268,-814.8489C268,-803.7178 268,-788.8915 268,-774.5447"/>
<polygon fill="#000000" stroke="#000000" points="271.5001,-774.2423 268,-764.2423 264.5001,-774.2423 271.5001,-774.2423"/>
<text text-anchor="middle" x="275" y="-785.8" font-family="Times,serif" font-size="14.00" fill="#000000">no</text>
</g>
<!-- T_NG -->
<g id="node8" class="node">
<title>T_NG</title>
<polygon fill="none" stroke="#000000" points="537.0626,-726 513.5313,-744 466.4687,-744 442.9374,-726 466.4687,-708 513.5313,-708 537.0626,-726"/>
<text text-anchor="middle" x="490" y="-722.3" font-family="Times,serif" font-size="14.00" fill="#000000">No Goal</text>
</g>
<!-- if_GW&#45;&gt;T_NG -->
<g id="edge21" class="edge">
<title>if_GW&#45;&gt;T_NG</title>
<path fill="none" stroke="#000000" d="M406.0713,-726C415.349,-726 424.358,-726 432.8169,-726"/>
<polygon fill="#000000" stroke="#000000" points="432.8432,-729.5001 442.8431,-726 432.8431,-722.5001 432.8432,-729.5001"/>
<text text-anchor="middle" x="424.3596" y="-732.8" font-family="Times,serif" font-size="14.00" fill="#000000">yes</text>
</g>
<!-- if_GA -->
<g id="node9" class="node">
<title>if_GA</title>
<polygon fill="none" stroke="#000000" points="268,-637 170.6386,-619 268,-601 365.3614,-619 268,-637"/>
<text text-anchor="middle" x="268" y="-615.3" font-family="Times,serif" font-size="14.00" fill="#000000">Is goal available</text>
</g>
<!-- if_GW&#45;&gt;if_GA -->
<g id="edge20" class="edge">
<title>if_GW&#45;&gt;if_GA</title>
<path fill="none" stroke="#000000" d="M268,-687.9745C268,-674.5944 268,-659.8013 268,-647.3572"/>
<polygon fill="#000000" stroke="#000000" points="271.5001,-647.1208 268,-637.1208 264.5001,-647.1208 271.5001,-647.1208"/>
<text text-anchor="middle" x="275" y="-658.8" font-family="Times,serif" font-size="14.00" fill="#000000">no</text>
</g>
<!-- MG -->
<g id="node15" class="node">
<title>MG</title>
<polygon fill="none" stroke="#000000" points="90,-496 0,-496 0,-460 90,-460 90,-496"/>
<text text-anchor="middle" x="45" y="-474.3" font-family="Times,serif" font-size="14.00" fill="#000000">Move to goal</text>
</g>
<!-- if_GA&#45;&gt;MG -->
<g id="edge23" class="edge">
<title>if_GA&#45;&gt;MG</title>
<path fill="none" stroke="#000000" d="M245.8026,-604.9649C207.6125,-580.8178 129.0851,-531.1659 82.3495,-501.6156"/>
<polygon fill="#000000" stroke="#000000" points="84.0515,-498.5508 73.7288,-496.1649 80.3105,-504.4674 84.0515,-498.5508"/>
<text text-anchor="middle" x="217.5" y="-571.8" font-family="Times,serif" font-size="14.00" fill="#000000">yes</text>
</g>
<!-- FOREACH -->
<g id="node17" class="node">
<title>FOREACH</title>
<polygon fill="none" stroke="#000000" points="425.3268,-524.5442 425.3268,-539.4558 382.373,-550 321.627,-550 278.6732,-539.4558 278.6732,-524.5442 321.627,-514 382.373,-514 425.3268,-524.5442"/>
<text text-anchor="middle" x="352" y="-528.3" font-family="Times,serif" font-size="14.00" fill="#000000">For each cluster</text>
</g>
<!-- if_GA&#45;&gt;FOREACH -->
<g id="edge22" class="edge">
<title>if_GA&#45;&gt;FOREACH</title>
<path fill="none" stroke="#000000" d="M283.0175,-603.4461C295.3142,-590.7102 312.9623,-572.4319 327.3295,-557.5516"/>
<polygon fill="#000000" stroke="#000000" points="330.0698,-559.7523 334.4979,-550.1272 325.034,-554.8901 330.0698,-559.7523"/>
<text text-anchor="middle" x="323" y="-571.8" font-family="Times,serif" font-size="14.00" fill="#000000">no</text>
</g>
<!-- NORM -->
<g id="node10" class="node">
<title>NORM</title>
<polygon fill="none" stroke="#000000" points="204,-423 46,-423 46,-385 204,-385 204,-423"/>
<text text-anchor="middle" x="125" y="-407.8" font-family="Times,serif" font-size="14.00" fill="#000000">Normalize the terms</text>
<text text-anchor="middle" x="125" y="-392.8" font-family="Times,serif" font-size="14.00" fill="#000000"> and calculate the benefits</text>
</g>
<!-- FM -->
<g id="node11" class="node">
<title>FM</title>
<polygon fill="none" stroke="#000000" points="188,-315 60,-315 60,-277 188,-277 188,-315"/>
<text text-anchor="middle" x="124" y="-299.8" font-family="Times,serif" font-size="14.00" fill="#000000">Find the center</text>
<text text-anchor="middle" x="124" y="-284.8" font-family="Times,serif" font-size="14.00" fill="#000000"> with biggest benefit</text>
</g>
<!-- NORM&#45;&gt;FM -->
<g id="edge25" class="edge">
<title>NORM&#45;&gt;FM</title>
<path fill="none" stroke="#000000" d="M124.8235,-384.9404C124.6709,-368.4625 124.4479,-344.3779 124.2725,-325.4262"/>
<polygon fill="#000000" stroke="#000000" points="127.7706,-325.1995 124.1781,-315.2324 120.7709,-325.2644 127.7706,-325.1995"/>
</g>
<!-- if_INF -->
<g id="node12" class="node">
<title>if_INF</title>
<polygon fill="none" stroke="#000000" points="153,-240 37,-202 153,-164 269,-202 153,-240"/>
<text text-anchor="middle" x="153" y="-205.8" font-family="Times,serif" font-size="14.00" fill="#000000">Is the total benefit</text>
<text text-anchor="middle" x="153" y="-190.8" font-family="Times,serif" font-size="14.00" fill="#000000"> negativ infinity?</text>
</g>
<!-- FM&#45;&gt;if_INF -->
<g id="edge26" class="edge">
<title>FM&#45;&gt;if_INF</title>
<path fill="none" stroke="#000000" d="M129.8686,-276.9777C132.6056,-268.1059 135.9878,-257.143 139.3128,-246.3654"/>
<polygon fill="#000000" stroke="#000000" points="142.7265,-247.1724 142.3302,-236.585 136.0376,-245.1088 142.7265,-247.1724"/>
</g>
<!-- T_INF -->
<g id="node13" class="node">
<title>T_INF</title>
<polygon fill="none" stroke="#000000" points="199.1056,-94 158.5528,-112 77.4472,-112 36.8944,-94 77.4472,-76 158.5528,-76 199.1056,-94"/>
<text text-anchor="middle" x="118" y="-90.3" font-family="Times,serif" font-size="14.00" fill="#000000">Error can&#39;t move</text>
</g>
<!-- if_INF&#45;&gt;T_INF -->
<g id="edge27" class="edge">
<title>if_INF&#45;&gt;T_INF</title>
<path fill="none" stroke="#000000" d="M141.8296,-167.5312C137.0322,-152.728 131.5014,-135.6616 126.9766,-121.6992"/>
<polygon fill="#000000" stroke="#000000" points="130.2969,-120.5915 123.8844,-112.1576 123.6379,-122.7496 130.2969,-120.5915"/>
<text text-anchor="middle" x="144.5" y="-134.8" font-family="Times,serif" font-size="14.00" fill="#000000">yes</text>
</g>
<!-- MM -->
<g id="node14" class="node">
<title>MM</title>
<polygon fill="none" stroke="#000000" points="320.5,-112 217.5,-112 217.5,-76 320.5,-76 320.5,-112"/>
<text text-anchor="middle" x="269" y="-90.3" font-family="Times,serif" font-size="14.00" fill="#000000">Move to cluster</text>
</g>
<!-- if_INF&#45;&gt;MM -->
<g id="edge28" class="edge">
<title>if_INF&#45;&gt;MM</title>
<path fill="none" stroke="#000000" d="M183.4776,-173.6243C201.6396,-156.7149 224.4887,-135.4416 241.9994,-119.1385"/>
<polygon fill="#000000" stroke="#000000" points="244.6992,-121.407 249.6332,-112.0312 239.9293,-116.2837 244.6992,-121.407"/>
<text text-anchor="middle" x="236" y="-134.8" font-family="Times,serif" font-size="14.00" fill="#000000">no</text>
</g>
<!-- EXIT -->
<g id="node16" class="node">
<title>EXIT</title>
<ellipse fill="none" stroke="#000000" cx="139" cy="-19" rx="27" ry="18"/>
<text text-anchor="middle" x="139" y="-15.3" font-family="Times,serif" font-size="14.00" fill="#000000">Exit</text>
</g>
<!-- MM&#45;&gt;EXIT -->
<g id="edge30" class="edge">
<title>MM&#45;&gt;EXIT</title>
<path fill="none" stroke="#000000" d="M237.5306,-75.8446C216.5478,-63.7391 189.1453,-47.93 168.5666,-36.0577"/>
<polygon fill="#000000" stroke="#000000" points="170.0502,-32.8729 159.6393,-30.9073 166.5521,-38.9362 170.0502,-32.8729"/>
</g>
<!-- MG&#45;&gt;EXIT -->
<g id="edge29" class="edge">
<title>MG&#45;&gt;EXIT</title>
<path fill="none" stroke="#000000" d="M37.0104,-459.7172C26.4045,-433.7416 9,-384.4235 9,-340.5 9,-340.5 9,-340.5 9,-94 9,-50.5875 64.0646,-31.9149 102.5189,-24.1679"/>
<polygon fill="#000000" stroke="#000000" points="103.1829,-27.6045 112.3789,-22.3429 101.9088,-20.7214 103.1829,-27.6045"/>
</g>
<!-- FOREACH&#45;&gt;NORM -->
<g id="edge24" class="edge">
<title>FOREACH&#45;&gt;NORM</title>
<path fill="none" stroke="#000000" d="M320.4366,-514.2021C280.6607,-491.7734 212.1373,-453.1347 167.7071,-428.0815"/>
<polygon fill="#000000" stroke="#000000" points="169.3143,-424.9697 158.8845,-423.1067 165.8761,-431.0672 169.3143,-424.9697"/>
<text text-anchor="middle" x="298.5" y="-474.3" font-family="Times,serif" font-size="14.00" fill="#000000">done</text>
</g>
<!-- if_CU -->
<g id="node18" class="node">
<title>if_CU</title>
<polygon fill="none" stroke="#000000" points="352,-442 224,-404 352,-366 480,-404 352,-442"/>
<text text-anchor="middle" x="352" y="-407.8" font-family="Times,serif" font-size="14.00" fill="#000000">Is the cluster center</text>
<text text-anchor="middle" x="352" y="-392.8" font-family="Times,serif" font-size="14.00" fill="#000000"> in unknown space ?</text>
</g>
<!-- FOREACH&#45;&gt;if_CU -->
<g id="edge1" class="edge">
<title>FOREACH&#45;&gt;if_CU</title>
<path fill="none" stroke="#000000" d="M352,-513.9322C352,-497.9291 352,-473.8279 352,-452.2666"/>
<polygon fill="#000000" stroke="#000000" points="355.5001,-452.2559 352,-442.2559 348.5001,-452.2559 355.5001,-452.2559"/>
</g>
<!-- CM -->
<g id="node19" class="node">
<title>CM</title>
<polygon fill="none" stroke="#000000" points="352,-315 206,-315 206,-277 352,-277 352,-315"/>
<text text-anchor="middle" x="279" y="-299.8" font-family="Times,serif" font-size="14.00" fill="#000000">Move the cluster center</text>
<text text-anchor="middle" x="279" y="-284.8" font-family="Times,serif" font-size="14.00" fill="#000000"> to closest frontier cell</text>
</g>
<!-- if_CU&#45;&gt;CM -->
<g id="edge2" class="edge">
<title>if_CU&#45;&gt;CM</title>
<path fill="none" stroke="#000000" d="M330.4924,-372.1806C320.0156,-356.6807 307.5442,-338.2298 297.4992,-323.3686"/>
<polygon fill="#000000" stroke="#000000" points="300.3984,-321.4078 291.8986,-315.0829 294.5989,-325.3278 300.3984,-321.4078"/>
<text text-anchor="middle" x="323.5" y="-336.8" font-family="Times,serif" font-size="14.00" fill="#000000">yes</text>
</g>
<!-- COST -->
<g id="node20" class="node">
<title>COST</title>
<polygon fill="none" stroke="#000000" points="480.5,-314 387.5,-314 387.5,-278 480.5,-278 480.5,-314"/>
<text text-anchor="middle" x="434" y="-292.3" font-family="Times,serif" font-size="14.00" fill="#000000">Calculate cost</text>
</g>
<!-- if_CU&#45;&gt;COST -->
<g id="edge4" class="edge">
<title>if_CU&#45;&gt;COST</title>
<path fill="none" stroke="#000000" d="M375.7178,-372.7619C387.9301,-356.6774 402.6464,-337.295 414.2358,-322.0309"/>
<polygon fill="#000000" stroke="#000000" points="417.0573,-324.1026 420.3169,-314.0217 411.4822,-319.8697 417.0573,-324.1026"/>
<text text-anchor="middle" x="412" y="-336.8" font-family="Times,serif" font-size="14.00" fill="#000000">no</text>
</g>
<!-- CM&#45;&gt;COST -->
<g id="edge3" class="edge">
<title>CM&#45;&gt;COST</title>
<path fill="none" stroke="#000000" d="M352.2617,-296C360.5849,-296 368.908,-296 377.2312,-296"/>
<polygon fill="#000000" stroke="#000000" points="377.3837,-299.5001 387.3836,-296 377.3836,-292.5001 377.3837,-299.5001"/>
</g>
<!-- if_COST_INF -->
<g id="node22" class="node">
<title>if_COST_INF</title>
<polygon fill="none" stroke="#000000" points="434,-220 321.7255,-202 434,-184 546.2745,-202 434,-220"/>
<text text-anchor="middle" x="434" y="-198.3" font-family="Times,serif" font-size="14.00" fill="#000000">Is the cost infinity?</text>
</g>
<!-- COST&#45;&gt;if_COST_INF -->
<g id="edge5" class="edge">
<title>COST&#45;&gt;if_COST_INF</title>
<path fill="none" stroke="#000000" d="M434,-277.8759C434,-264.3516 434,-245.6192 434,-230.1514"/>
<polygon fill="#000000" stroke="#000000" points="437.5001,-230.0685 434,-220.0685 430.5001,-230.0685 437.5001,-230.0685"/>
</g>
<!-- GOAL -->
<g id="node21" class="node">
<title>GOAL</title>
<polygon fill="none" stroke="#000000" points="476.5,-112 361.5,-112 361.5,-76 476.5,-76 476.5,-112"/>
<text text-anchor="middle" x="419" y="-90.3" font-family="Times,serif" font-size="14.00" fill="#000000">Calculate the goal</text>
</g>
<!-- SR -->
<g id="node23" class="node">
<title>SR</title>
<polygon fill="none" stroke="#000000" points="613.5,-113 512.5,-113 512.5,-75 613.5,-75 613.5,-113"/>
<text text-anchor="middle" x="563" y="-97.8" font-family="Times,serif" font-size="14.00" fill="#000000">Calculate the</text>
<text text-anchor="middle" x="563" y="-82.8" font-family="Times,serif" font-size="14.00" fill="#000000"> Sensor reading</text>
</g>
<!-- GOAL&#45;&gt;SR -->
<g id="edge8" class="edge">
<title>GOAL&#45;&gt;SR</title>
<path fill="none" stroke="#000000" d="M476.6563,-94C485.2218,-94 493.7873,-94 502.3528,-94"/>
<polygon fill="#000000" stroke="#000000" points="502.408,-97.5001 512.408,-94 502.4079,-90.5001 502.408,-97.5001"/>
</g>
<!-- SRO -->
<g id="node24" class="node">
<title>SRO</title>
<polygon fill="none" stroke="#000000" points="518,-38 404,-38 404,0 518,0 518,-38"/>
<text text-anchor="middle" x="461" y="-22.8" font-family="Times,serif" font-size="14.00" fill="#000000">Find the</text>
<text text-anchor="middle" x="461" y="-7.8" font-family="Times,serif" font-size="14.00" fill="#000000"> optimal direction</text>
</g>
<!-- GOAL&#45;&gt;SRO -->
<!-- if_COST_INF&#45;&gt;FOREACH -->
<g id="edge6" class="edge">
<title>if_COST_INF&#45;&gt;FOREACH</title>
<path fill="none" stroke="#000000" d="M450.3624,-217.4707C463.9318,-231.5139 482.2142,-253.5591 490,-277 513.1161,-346.5961 524.076,-377.5977 489,-442 470.867,-475.2936 434.5066,-498.3083 403.7997,-512.7261"/>
<polygon fill="#000000" stroke="#000000" points="402.1572,-509.6272 394.4779,-516.9265 405.033,-516.0092 402.1572,-509.6272"/>
<text text-anchor="middle" x="518.5" y="-336.8" font-family="Times,serif" font-size="14.00" fill="#000000">yes</text>
</g>
<!-- if_COST_INF&#45;&gt;GOAL -->
<g id="edge7" class="edge">
<title>if_COST_INF&#45;&gt;GOAL</title>
<path fill="none" stroke="#000000" d="M431.5231,-184.166C429.1813,-167.3054 425.6304,-141.739 422.9071,-122.131"/>
<polygon fill="#000000" stroke="#000000" points="426.3733,-121.6449 421.5308,-112.2215 419.4398,-122.6079 426.3733,-121.6449"/>
<text text-anchor="middle" x="433" y="-134.8" font-family="Times,serif" font-size="14.00" fill="#000000">no</text>
</g>
<!-- SR&#45;&gt;SRO -->
<g id="edge10" class="edge">
<title>SR&#45;&gt;SRO</title>
<path fill="none" stroke="#000000" d="M536.9972,-74.8803C524.2887,-65.5358 508.8289,-54.1683 495.1794,-44.1319"/>
<polygon fill="#000000" stroke="#000000" points="497.0853,-41.189 486.9553,-38.0848 492.9385,-46.8285 497.0853,-41.189"/>
</g>
<!-- REWARD -->
<g id="node25" class="node">
<title>REWARD</title>
<polygon fill="none" stroke="#000000" points="687,-37 563,-37 563,-1 687,-1 687,-37"/>
<text text-anchor="middle" x="625" y="-15.3" font-family="Times,serif" font-size="14.00" fill="#000000">Calculate the utility</text>
</g>
<!-- SRO&#45;&gt;REWARD -->
<g id="edge11" class="edge">
<title>SRO&#45;&gt;REWARD</title>
<path fill="none" stroke="#000000" d="M518.0156,-19C529.544,-19 541.0724,-19 552.6008,-19"/>
<polygon fill="#000000" stroke="#000000" points="552.7318,-22.5001 562.7318,-19 552.7317,-15.5001 552.7318,-22.5001"/>
</g>
<!-- REWARD&#45;&gt;FOREACH -->
<g id="edge12" class="edge">
<title>REWARD&#45;&gt;FOREACH</title>
<path fill="none" stroke="#000000" d="M631.524,-37.2321C636.3181,-52.2606 642,-74.2403 642,-94 642,-404 642,-404 642,-404 642,-453.0332 501.4901,-495.8233 416.0804,-517.3041"/>
<polygon fill="#000000" stroke="#000000" points="415.0691,-513.9488 406.2066,-519.7545 416.7552,-520.7427 415.0691,-513.9488"/>
</g>
</g>
</svg>
